<?xml version="1.0" encoding="UTF-8" standalone="no"?>
<svg width="105px" height="37px" viewBox="0 0 105 37" version="1.1" xmlns="http://www.w3.org/2000/svg" xmlns:xlink="http://www.w3.org/1999/xlink">
    <!-- Generator: Sketch 43.2 (39069) - http://www.bohemiancoding.com/sketch -->
    <title>logo copy</title>
    <desc>Created with Sketch.</desc>
    <defs></defs>
    <g id="Page-1" stroke="none" stroke-width="1" fill="none" fill-rule="evenodd">
        <g id="Mobile-Portrait" transform="translate(-17.000000, -15.000000)" fill="#FFFFFF">
            <g id="logo" transform="translate(17.000000, 15.000000)">
                <g id="Group-4-Copy-2">
                    <path d="M2.058,31.7565714 L2.78631818,31.7565714 L4.82427273,36.5194805 L3.86209091,36.5194805 L3.42109091,35.4296623 L1.36977273,35.4296623 L0.942136364,36.5194805 L0,36.5194805 L2.058,31.7565714 Z M3.12709091,34.7031169 L2.39877273,32.7656623 L1.65709091,34.7031169 L3.12709091,34.7031169 Z M6.37350005,31.7565714 L8.01722732,31.7565714 C8.24441028,31.7565714 8.46379445,31.7778742 8.67538641,31.8204805 C8.88697838,31.8630868 9.07518104,31.9359649 9.24000005,32.0391169 C9.40481906,32.1422689 9.53622683,32.2812978 9.63422732,32.4562078 C9.73222781,32.6311178 9.78122732,32.8531155 9.78122732,33.1222078 C9.78122732,33.4675429 9.68656918,33.7568127 9.49725005,33.990026 C9.30793092,34.2232393 9.03731999,34.3645106 8.68540914,34.4138442 L9.94159096,36.5194805 L8.9259546,36.5194805 L7.83013641,34.5012987 L7.21540914,34.5012987 L7.21540914,36.5194805 L6.37350005,36.5194805 L6.37350005,31.7565714 Z M7.87022732,33.7747532 C7.99050065,33.7747532 8.11077218,33.7691472 8.2310455,33.7579351 C8.35131883,33.7467229 8.46156773,33.7198141 8.5617955,33.6772078 C8.66202328,33.6346015 8.74331792,33.5695719 8.80568187,33.4821169 C8.86804582,33.3946619 8.89922732,33.272451 8.89922732,33.1154805 C8.89922732,32.9764495 8.87027307,32.8643294 8.81236369,32.7791169 C8.75445431,32.6939043 8.67872779,32.6299959 8.58518187,32.5873896 C8.49163595,32.5447833 8.3880688,32.5167533 8.27447732,32.5032987 C8.16088585,32.4898441 8.05063695,32.4831169 7.94372732,32.4831169 L7.21540914,32.4831169 L7.21540914,33.7747532 L7.87022732,33.7747532 Z M12.4530001,32.5234805 L11.0030456,32.5234805 L11.0030456,31.7565714 L14.7448637,31.7565714 L14.7448637,32.5234805 L13.2949092,32.5234805 L13.2949092,36.5194805 L12.4530001,36.5194805 L12.4530001,32.5234805 Z M16.3208183,31.7565714 L17.1627274,31.7565714 L17.1627274,36.5194805 L16.3208183,36.5194805 L16.3208183,31.7565714 Z M17.0892274,30.4649351 L17.9979547,30.4649351 L17.0558183,31.4336623 L16.4277274,31.4336623 L17.0892274,30.4649351 Z M22.4671366,32.8732987 C22.2934084,32.6849341 22.125251,32.5593596 21.9626593,32.4965714 C21.8000676,32.4337832 21.6363647,32.4023896 21.4715457,32.4023896 C21.2265444,32.4023896 21.004933,32.4461164 20.8067047,32.5335714 C20.6084765,32.6210264 20.4380918,32.7421161 20.2955457,32.8968442 C20.1529995,33.0515722 20.0427506,33.2320855 19.9647957,33.4383896 C19.8868407,33.6446937 19.8478638,33.8666915 19.8478638,34.1043896 C19.8478638,34.3600273 19.8868407,34.5954794 19.9647957,34.8107532 C20.0427506,35.0260271 20.1529995,35.2121464 20.2955457,35.3691169 C20.4380918,35.5260874 20.6084765,35.6494195 20.8067047,35.7391169 C21.004933,35.8288143 21.2265444,35.8736623 21.4715457,35.8736623 C21.6630921,35.8736623 21.8490675,35.8276931 22.0294775,35.7357532 C22.2098875,35.6438134 22.3780449,35.4969361 22.5339547,35.2951169 L23.2288638,35.7929351 C23.0150446,36.0889365 22.7544563,36.3042071 22.4470911,36.4387532 C22.1397259,36.5732994 21.8123201,36.6405714 21.4648638,36.6405714 C21.0995893,36.6405714 20.7643881,36.5811478 20.4592502,36.4622987 C20.1541123,36.3434496 19.8912968,36.1752695 19.6707957,35.9577532 C19.4502946,35.740237 19.2776826,35.4789972 19.1529547,35.174026 C19.0282268,34.8690548 18.9658638,34.5304521 18.9658638,34.1582078 C18.9658638,33.7769938 19.0282268,33.4305427 19.1529547,33.1188442 C19.2776826,32.8071456 19.4502946,32.541421 19.6707957,32.3216623 C19.8912968,32.1019037 20.1541123,31.9326023 20.4592502,31.8137532 C20.7643881,31.6949042 21.0995893,31.6354805 21.4648638,31.6354805 C21.7855927,31.6354805 22.0829306,31.6926618 22.3568866,31.807026 C22.6308425,31.9213902 22.8858627,32.1153579 23.1219547,32.3889351 L22.4671366,32.8732987 Z M28.606773,34.7703896 C28.606773,35.0574213 28.5577735,35.3164188 28.459773,35.5473896 C28.3617725,35.7783605 28.2281375,35.9745706 28.0588639,36.136026 C27.8895903,36.2974813 27.6891378,36.4219346 27.4575003,36.5093896 C27.2258627,36.5968446 26.9741834,36.6405714 26.7024548,36.6405714 C26.4307262,36.6405714 26.1790469,36.5968446 25.9474093,36.5093896 C25.7157718,36.4219346 25.5142057,36.2974813 25.3427048,36.136026 C25.1712039,35.9745706 25.0375689,35.7783605 24.9417957,35.5473896 C24.8460225,35.3164188 24.7981366,35.0574213 24.7981366,34.7703896 L24.7981366,31.7565714 L25.6400457,31.7565714 L25.6400457,34.7434805 C25.6400457,34.8600872 25.6578637,34.9822981 25.6935003,35.1101169 C25.7291368,35.2379357 25.7881589,35.3556618 25.8705684,35.4632987 C25.9529779,35.5709356 26.0621132,35.6595105 26.1979775,35.729026 C26.3338418,35.7985415 26.5019992,35.8332987 26.7024548,35.8332987 C26.9029103,35.8332987 27.0710678,35.7985415 27.2069321,35.729026 C27.3427964,35.6595105 27.4519317,35.5709356 27.5343412,35.4632987 C27.6167507,35.3556618 27.6757728,35.2379357 27.7114093,35.1101169 C27.7470459,34.9822981 27.7648639,34.8600872 27.7648639,34.7434805 L27.7648639,31.7565714 L28.606773,31.7565714 L28.606773,34.7703896 Z M30.6638185,31.7565714 L31.5057276,31.7565714 L31.5057276,35.7525714 L33.5169548,35.7525714 L33.5169548,36.5194805 L30.6638185,36.5194805 L30.6638185,31.7565714 Z M34.8991367,34.1582078 C34.8991367,33.7769938 34.9614997,33.4305427 35.0862276,33.1188442 C35.2109555,32.8071456 35.3835674,32.541421 35.6040685,32.3216623 C35.8245696,32.1019037 36.0873852,31.9326023 36.3925231,31.8137532 C36.697661,31.6949042 37.0328622,31.6354805 37.3981367,31.6354805 C37.7678658,31.6309956 38.1064079,31.6859345 38.4137731,31.8002987 C38.7211383,31.9146629 38.9861811,32.0817218 39.2089094,32.3014805 C39.4316378,32.5212392 39.6053634,32.7858426 39.7300913,33.0952987 C39.8548192,33.4047548 39.9171822,33.7500847 39.9171822,34.1312987 C39.9171822,34.503543 39.8548192,34.8421457 39.7300913,35.1471169 C39.6053634,35.4520881 39.4316378,35.7144491 39.2089094,35.9342078 C38.9861811,36.1539665 38.7211383,36.3255102 38.4137731,36.4488442 C38.1064079,36.5721781 37.7678658,36.6360866 37.3981367,36.6405714 C37.0328622,36.6405714 36.697661,36.5811478 36.3925231,36.4622987 C36.0873852,36.3434496 35.8245696,36.1752695 35.6040685,35.9577532 C35.3835674,35.740237 35.2109555,35.4789972 35.0862276,35.174026 C34.9614997,34.8690548 34.8991367,34.5304521 34.8991367,34.1582078 Z M35.7811367,34.1043896 C35.7811367,34.3600273 35.8201136,34.5954794 35.8980685,34.8107532 C35.9760235,35.0260271 36.0862724,35.2121464 36.2288185,35.3691169 C36.3713647,35.5260874 36.5417494,35.6494195 36.7399776,35.7391169 C36.9382059,35.8288143 37.1598173,35.8736623 37.4048185,35.8736623 C37.6498198,35.8736623 37.8725448,35.8288143 38.0730004,35.7391169 C38.2734559,35.6494195 38.4449542,35.5260874 38.5875004,35.3691169 C38.7300465,35.2121464 38.8402954,35.0260271 38.9182504,34.8107532 C38.9962053,34.5954794 39.0351822,34.3600273 39.0351822,34.1043896 C39.0351822,33.8666915 38.9962053,33.6446937 38.9182504,33.4383896 C38.8402954,33.2320855 38.7300465,33.0515722 38.5875004,32.8968442 C38.4449542,32.7421161 38.2734559,32.6210264 38.0730004,32.5335714 C37.8725448,32.4461164 37.6498198,32.4023896 37.4048185,32.4023896 C37.1598173,32.4023896 36.9382059,32.4461164 36.7399776,32.5335714 C36.5417494,32.6210264 36.3713647,32.7421161 36.2288185,32.8968442 C36.0862724,33.0515722 35.9760235,33.2320855 35.8980685,33.4383896 C35.8201136,33.6446937 35.7811367,33.8666915 35.7811367,34.1043896 Z M44.0589549,32.7791169 C43.9698636,32.6490556 43.8507057,32.5537535 43.7014777,32.4932078 C43.5522497,32.432662 43.3952285,32.4023896 43.2304095,32.4023896 C43.132409,32.4023896 43.0377509,32.4136016 42.9464322,32.436026 C42.8551136,32.4584503 42.7727053,32.4943288 42.6992049,32.5436623 C42.6257046,32.5929959 42.5666824,32.6569044 42.5221368,32.7353896 C42.4775911,32.8138749 42.4553186,32.9069345 42.4553186,33.0145714 C42.4553186,33.1760268 42.5109998,33.2993589 42.622364,33.3845714 C42.7337282,33.469784 42.8718178,33.5437832 43.0366368,33.6065714 C43.2014558,33.6693596 43.3818631,33.7299045 43.577864,33.7882078 C43.773865,33.8465111 43.9542723,33.9272376 44.1190913,34.0303896 C44.2839103,34.1335416 44.4219998,34.2703282 44.533364,34.4407532 C44.6447282,34.6111783 44.7004095,34.8376609 44.7004095,35.1202078 C44.7004095,35.3758454 44.6536372,35.5989644 44.5600913,35.7895714 C44.4665454,35.9801784 44.3407057,36.1382678 44.1825686,36.2638442 C44.0244314,36.3894205 43.8406833,36.4836014 43.6313186,36.5463896 C43.4219539,36.6091778 43.2014561,36.6405714 42.9698186,36.6405714 C42.6758171,36.6405714 42.3929563,36.5912386 42.1212277,36.4925714 C41.849499,36.3939043 41.6156377,36.2279665 41.4196368,35.9947532 L42.0544095,35.3758442 C42.1568645,35.5328146 42.2916132,35.6550255 42.4586595,35.7424805 C42.6257058,35.8299355 42.8027722,35.8736623 42.989864,35.8736623 C43.0878645,35.8736623 43.1858635,35.8602079 43.283864,35.8332987 C43.3818645,35.8063895 43.4709545,35.7660262 43.5511368,35.7122078 C43.631319,35.6583893 43.6959092,35.5899961 43.7449095,35.507026 C43.7939097,35.4240559 43.8184095,35.3287538 43.8184095,35.2211169 C43.8184095,35.0462069 43.7627282,34.9116628 43.651364,34.8174805 C43.5399998,34.7232982 43.4019103,34.643693 43.2370913,34.5786623 C43.0722723,34.5136317 42.891865,34.4519657 42.695864,34.3936623 C42.4998631,34.335359 42.3194558,34.2557538 42.1546368,34.1548442 C41.9898178,34.0539346 41.8517282,33.9193905 41.740364,33.7512078 C41.6289998,33.5830251 41.5733186,33.3576638 41.5733186,33.0751169 C41.5733186,32.828449 41.6234317,32.6154208 41.7236595,32.436026 C41.8238873,32.2566311 41.955295,32.1075114 42.1178868,31.9886623 C42.2804785,31.8698133 42.4664539,31.7812384 42.6758186,31.7229351 C42.8851833,31.6646317 43.0989993,31.6354805 43.3172731,31.6354805 C43.5667289,31.6354805 43.8083856,31.6736014 44.0422504,31.7498442 C44.2761152,31.826087 44.4865904,31.9516615 44.6736822,32.1265714 L44.0589549,32.7791169 Z M49.5962732,31.7565714 L51.4605005,31.7565714 C51.7723202,31.7565714 52.0729991,31.8047831 52.362546,31.9012078 C52.6520929,31.9976325 52.9082267,32.1445098 53.130955,32.3418442 C53.3536834,32.5391785 53.5318635,32.7869639 53.6655005,33.0852078 C53.7991375,33.3834517 53.865955,33.7343876 53.865955,34.138026 C53.865955,34.5461492 53.7891149,34.8993275 53.6354323,35.1975714 C53.4817497,35.4958153 53.2835244,35.7424795 53.0407505,35.9375714 C52.7979766,36.1326633 52.5284793,36.2784194 52.2322505,36.3748442 C51.9360217,36.4712689 51.6453656,36.5194805 51.3602732,36.5194805 L49.5962732,36.5194805 L49.5962732,31.7565714 Z M51.0662732,35.7525714 C51.3290927,35.7525714 51.5774311,35.722299 51.811296,35.6617532 C52.0451608,35.6012075 52.2489542,35.5070266 52.4226823,35.3792078 C52.5964105,35.251389 52.7333864,35.0854512 52.8336141,34.8813896 C52.9338419,34.677328 52.983955,34.4295426 52.983955,34.138026 C52.983955,33.8509942 52.93941,33.60433 52.8503187,33.398026 C52.7612273,33.1917219 52.6376149,33.024663 52.4794778,32.8968442 C52.3213406,32.7690253 52.1342516,32.6748445 51.918205,32.6142987 C51.7021585,32.5537529 51.4649563,32.5234805 51.2065914,32.5234805 L50.4381823,32.5234805 L50.4381823,35.7525714 L51.0662732,35.7525714 Z M55.6891369,31.7565714 L58.8229096,31.7565714 L58.8229096,32.5234805 L56.531046,32.5234805 L56.531046,33.694026 L58.7026369,33.694026 L58.7026369,34.4609351 L56.531046,34.4609351 L56.531046,35.7525714 L58.9431824,35.7525714 L58.9431824,36.5194805 L55.6891369,36.5194805 L55.6891369,31.7565714 Z M63.7922734,31.7565714 L64.908137,31.7565714 L67.2000007,35.2951169 L67.2133643,35.2951169 L67.2133643,31.7565714 L68.0552734,31.7565714 L68.0552734,36.5194805 L66.9861825,36.5194805 L64.6475461,32.8665714 L64.6341825,32.8665714 L64.6341825,36.5194805 L63.7922734,36.5194805 L63.7922734,31.7565714 Z M71.6625007,31.7565714 L72.3908189,31.7565714 L74.4287734,36.5194805 L73.4665916,36.5194805 L73.0255916,35.4296623 L70.9742734,35.4296623 L70.5466371,36.5194805 L69.6045007,36.5194805 L71.6625007,31.7565714 Z M72.7315916,34.7031169 L72.0032734,32.7656623 L71.2615916,34.7031169 L72.7315916,34.7031169 Z M76.3321371,32.5234805 L74.8821826,32.5234805 L74.8821826,31.7565714 L78.6240008,31.7565714 L78.6240008,32.5234805 L77.1740462,32.5234805 L77.1740462,36.5194805 L76.3321371,36.5194805 L76.3321371,32.5234805 Z M81.1354099,31.7565714 L81.8637281,31.7565714 L83.9016826,36.5194805 L82.9395008,36.5194805 L82.4985008,35.4296623 L80.4471826,35.4296623 L80.0195463,36.5194805 L79.0774099,36.5194805 L81.1354099,31.7565714 Z M82.2045008,34.7031169 L81.4761826,32.7656623 L80.7345008,34.7031169 L82.2045008,34.7031169 Z M88.6982736,32.8732987 C88.5245454,32.6849341 88.356388,32.5593596 88.1937963,32.4965714 C88.0312046,32.4337832 87.8675017,32.4023896 87.7026827,32.4023896 C87.4576814,32.4023896 87.23607,32.4461164 87.0378418,32.5335714 C86.8396135,32.6210264 86.6692288,32.7421161 86.5266827,32.8968442 C86.3841365,33.0515722 86.2738876,33.2320855 86.1959327,33.4383896 C86.1179777,33.6446937 86.0790009,33.8666915 86.0790009,34.1043896 C86.0790009,34.3600273 86.1179777,34.5954794 86.1959327,34.8107532 C86.2738876,35.0260271 86.3841365,35.2121464 86.5266827,35.3691169 C86.6692288,35.5260874 86.8396135,35.6494195 87.0378418,35.7391169 C87.23607,35.8288143 87.4576814,35.8736623 87.7026827,35.8736623 C87.8942291,35.8736623 88.0802045,35.8276931 88.2606145,35.7357532 C88.4410245,35.6438134 88.6091819,35.4969361 88.7650918,35.2951169 L89.4600009,35.7929351 C89.2461816,36.0889365 88.9855933,36.3042071 88.6782281,36.4387532 C88.370863,36.5732994 88.0434571,36.6405714 87.6960009,36.6405714 C87.3307263,36.6405714 86.9955251,36.5811478 86.6903872,36.4622987 C86.3852493,36.3434496 86.1224338,36.1752695 85.9019327,35.9577532 C85.6814316,35.740237 85.5088197,35.4789972 85.3840918,35.174026 C85.2593639,34.8690548 85.1970009,34.5304521 85.1970009,34.1582078 C85.1970009,33.7769938 85.2593639,33.4305427 85.3840918,33.1188442 C85.5088197,32.8071456 85.6814316,32.541421 85.9019327,32.3216623 C86.1224338,32.1019037 86.3852493,31.9326023 86.6903872,31.8137532 C86.9955251,31.6949042 87.3307263,31.6354805 87.6960009,31.6354805 C88.0167297,31.6354805 88.3140677,31.6926618 88.5880236,31.807026 C88.8619795,31.9213902 89.1169997,32.1153579 89.3530918,32.3889351 L88.6982736,32.8732987 Z M91.0292736,31.7565714 L91.8711827,31.7565714 L91.8711827,36.5194805 L91.0292736,36.5194805 L91.0292736,31.7565714 Z M93.6743191,34.1582078 C93.6743191,33.7769938 93.7366821,33.4305427 93.86141,33.1188442 C93.9861379,32.8071456 94.1587498,32.541421 94.379251,32.3216623 C94.5997521,32.1019037 94.8625676,31.9326023 95.1677055,31.8137532 C95.4728434,31.6949042 95.8080446,31.6354805 96.1733191,31.6354805 C96.5430483,31.6309956 96.8815903,31.6859345 97.1889555,31.8002987 C97.4963207,31.9146629 97.7613635,32.0817218 97.9840919,32.3014805 C98.2068202,32.5212392 98.3805458,32.7858426 98.5052737,33.0952987 C98.6300016,33.4047548 98.6923646,33.7500847 98.6923646,34.1312987 C98.6923646,34.503543 98.6300016,34.8421457 98.5052737,35.1471169 C98.3805458,35.4520881 98.2068202,35.7144491 97.9840919,35.9342078 C97.7613635,36.1539665 97.4963207,36.3255102 97.1889555,36.4488442 C96.8815903,36.5721781 96.5430483,36.6360866 96.1733191,36.6405714 C95.8080446,36.6405714 95.4728434,36.5811478 95.1677055,36.4622987 C94.8625676,36.3434496 94.5997521,36.1752695 94.379251,35.9577532 C94.1587498,35.740237 93.9861379,35.4789972 93.86141,35.174026 C93.7366821,34.8690548 93.6743191,34.5304521 93.6743191,34.1582078 Z M94.5563191,34.1043896 C94.5563191,34.3600273 94.595296,34.5954794 94.673251,34.8107532 C94.7512059,35.0260271 94.8614548,35.2121464 95.004001,35.3691169 C95.1465471,35.5260874 95.3169318,35.6494195 95.51516,35.7391169 C95.7133883,35.8288143 95.9349997,35.8736623 96.180001,35.8736623 C96.4250022,35.8736623 96.6477272,35.8288143 96.8481828,35.7391169 C97.0486383,35.6494195 97.2201366,35.5260874 97.3626828,35.3691169 C97.5052289,35.2121464 97.6154778,35.0260271 97.6934328,34.8107532 C97.7713877,34.5954794 97.8103646,34.3600273 97.8103646,34.1043896 C97.8103646,33.8666915 97.7713877,33.6446937 97.6934328,33.4383896 C97.6154778,33.2320855 97.5052289,33.0515722 97.3626828,32.8968442 C97.2201366,32.7421161 97.0486383,32.6210264 96.8481828,32.5335714 C96.6477272,32.4461164 96.4250022,32.4023896 96.180001,32.4023896 C95.9349997,32.4023896 95.7133883,32.4461164 95.51516,32.5335714 C95.3169318,32.6210264 95.1465471,32.7421161 95.004001,32.8968442 C94.8614548,33.0515722 94.7512059,33.2320855 94.673251,33.4383896 C94.595296,33.6446937 94.5563191,33.8666915 94.5563191,34.1043896 Z M96.5341373,30.4649351 L97.4428646,30.4649351 L96.5007282,31.4336623 L95.8726373,31.4336623 L96.5341373,30.4649351 Z M100.515546,31.7565714 L101.63141,31.7565714 L103.923274,35.2951169 L103.936637,35.2951169 L103.936637,31.7565714 L104.778546,31.7565714 L104.778546,36.5194805 L103.709456,36.5194805 L101.370819,32.8665714 L101.357456,32.8665714 L101.357456,36.5194805 L100.515546,36.5194805 L100.515546,31.7565714 Z" id="Artículos-de-natació-Copy"></path>
                    <g id="Group-2-Copy" transform="translate(0.477273, 0.000000)">
                        <path d="M1.03472727,25.283013 C0.599452369,25.0062324 0.381818182,24.568003 0.381818182,23.9683117 C0.381818182,23.3686204 0.817086556,22.4575646 1.68763636,21.2351169 C1.93963762,20.843011 2.34626992,20.646961 2.90754545,20.646961 C3.46882099,20.646961 4.23054064,20.9295037 5.19272727,21.4945974 C6.1549139,22.0596911 7.02545065,22.3422338 7.80436364,22.3422338 C9.20182517,22.3422338 9.90054545,22.0654573 9.90054545,21.5118961 C9.90054545,21.0736601 9.13309858,20.7507543 7.59818182,20.5431688 C6.15490187,20.3355834 4.72309801,19.7935628 3.30272727,18.9170909 C2.63836031,18.50192 2.08854763,17.8503421 1.65327273,16.9623377 C1.21799782,16.0743332 1.00036364,15.019123 1.00036364,13.7966753 C1.00036364,10.1523974 3.48597514,8.33028571 8.45727273,8.33028571 C10.0838263,8.33028571 11.7561732,8.72238569 13.4743636,9.5065974 C14.2761858,9.87563821 14.6770909,10.3369323 14.6770909,10.8904935 C14.6770909,11.4440547 14.4250934,12.1244635 13.9210909,12.9317403 C13.4170884,13.739017 12.901639,14.1426494 12.3747273,14.1426494 C12.0998168,14.1426494 11.5900946,13.9696641 10.8455455,13.6236883 C10.1009963,13.2777126 9.2934589,13.1047273 8.42290909,13.1047273 C7.07126597,13.1047273 6.39545455,13.358439 6.39545455,13.8658701 C6.39545455,14.5578216 7.17435585,15.0075834 8.73218182,15.2151688 C10.2441894,15.3766242 11.7103565,15.8148536 13.1307273,16.5298701 C13.7950942,16.8527808 14.3506341,17.4120999 14.7973636,18.2078442 C15.2440931,19.0035884 15.4674545,20.0011369 15.4674545,21.2005195 C15.4674545,22.3999021 15.2440931,23.4205153 14.7973636,24.2623896 C14.3506341,25.1042639 13.7263676,25.7327771 12.9245455,26.1479481 C11.4583563,26.8629646 9.61992014,27.2204675 7.40918182,27.2204675 C5.19844349,27.2204675 3.07364656,26.5746558 1.03472727,25.283013 Z M25.7421818,26.8398961 C23.4283521,26.8398961 21.5097349,25.9576712 19.9862727,24.1931948 C18.4628106,22.4287185 17.7010909,20.2779348 17.7010909,17.7407792 L17.7010909,11.6862338 C17.7010909,11.1326726 17.7182726,10.7290402 17.7526364,10.4753247 C17.7870002,10.2216091 17.8843628,9.92176796 18.0447273,9.57579221 C18.3654561,8.95303585 19.2589018,8.64166234 20.7250909,8.64166234 C22.3287353,8.64166234 23.2679986,9.07989172 23.5429091,9.95636364 C23.6803643,10.3254044 23.7490909,10.9135544 23.7490909,11.7208312 L23.7490909,17.7753766 C23.7490909,18.7210437 24.01827,19.4591142 24.5566364,19.9896104 C25.0950027,20.5201065 25.8166318,20.7853506 26.7215455,20.7853506 C27.6264591,20.7853506 28.3595426,20.5085742 28.9208182,19.955013 C29.4820937,19.4014518 29.7627273,18.6749136 29.7627273,17.7753766 L29.7627273,11.6516364 C29.7627273,11.1211402 29.7799089,10.7232741 29.8142727,10.458026 C29.8486365,10.1927779 29.9574536,9.88717056 30.1407273,9.54119481 C30.4385469,8.9415035 31.3205381,8.64166234 32.7867273,8.64166234 C34.2300072,8.64166234 35.1119984,8.95303585 35.4327273,9.57579221 C35.5930917,9.92176796 35.6904544,10.2273753 35.7248182,10.4926234 C35.759182,10.7578715 35.7763636,11.1557376 35.7763636,11.6862338 L35.7763636,23.9337143 C35.7763636,24.4411454 35.759182,24.8274792 35.7248182,25.0927273 C35.6904544,25.3579754 35.5816373,25.6520503 35.3983636,25.974961 C35.0547256,26.5746523 34.1727344,26.8744935 32.7523636,26.8744935 C31.3549021,26.8744935 30.4958198,26.5977171 30.1750909,26.0441558 C29.9459989,25.65205 29.8314545,25.1792235 29.8314545,24.6256623 C29.7398177,24.7871177 29.533638,25.0177647 29.2129091,25.3176104 C28.8921802,25.617456 28.5829106,25.8711678 28.2850909,26.0787532 C27.5061779,26.5861844 26.65855,26.8398961 25.7421818,26.8398961 Z M31.2747273,6.32363636 C30.5416327,6.32363636 29.9574567,6.25444225 29.5221818,6.11605195 C29.0869069,5.97766165 28.7776373,5.72971607 28.5943636,5.37220779 C28.41109,5.01469951 28.3022729,4.703326 28.2679091,4.43807792 C28.2335453,4.17282984 28.2163636,3.76343134 28.2163636,3.20987013 C28.2163636,2.65630892 28.2335453,2.24691042 28.2679091,1.98166234 C28.3022729,1.71641426 28.41109,1.4165731 28.5943636,1.08212987 C28.7776373,0.747686639 29.0926341,0.511273419 29.5393636,0.372883117 C29.9860931,0.234492815 30.5759963,0.165298701 31.3090909,0.165298701 C32.0421855,0.165298701 32.6263615,0.234492815 33.0616364,0.372883117 C33.4969113,0.511273419 33.8061809,0.759218992 33.9894545,1.11672727 C34.1727282,1.47423555 34.2815453,1.78560906 34.3159091,2.05085714 C34.3502729,2.31610522 34.3674545,2.71973755 34.3674545,3.26176623 C34.3674545,3.80379492 34.3502729,4.20742725 34.3159091,4.47267532 C34.2815453,4.7379234 34.1727282,5.04353074 33.9894545,5.38950649 C33.8061809,5.73548225 33.4911841,5.97766165 33.0444545,6.11605195 C32.597725,6.25444225 32.0078218,6.32363636 31.2747273,6.32363636 Z M21.9965455,6.32363636 C21.2634509,6.32363636 20.6792749,6.25444225 20.244,6.11605195 C19.8087251,5.97766165 19.4994555,5.72971607 19.3161818,5.37220779 C19.1329082,5.01469951 19.0240911,4.703326 18.9897273,4.43807792 C18.9553635,4.17282984 18.943909,3.75766516 18.9553636,3.19257143 C18.9668182,2.62747769 18.9897271,2.22384537 19.0240909,1.98166234 C19.0584547,1.73947931 19.1615446,1.44540433 19.3333636,1.09942857 C19.5051827,0.753452816 19.8144523,0.511273419 20.2611818,0.372883117 C20.7079113,0.234492815 21.2978145,0.165298701 22.0309091,0.165298701 C22.7640037,0.165298701 23.3481796,0.234492815 23.7834545,0.372883117 C24.2187294,0.511273419 24.5279991,0.759218992 24.7112727,1.11672727 C24.8945464,1.47423555 25.0033635,1.78560906 25.0377273,2.05085714 C25.0720911,2.31610522 25.0892727,2.71973755 25.0892727,3.26176623 C25.0892727,3.80379492 25.0720911,4.20742725 25.0377273,4.47267532 C25.0033635,4.7379234 24.8945464,5.04353074 24.7112727,5.38950649 C24.5279991,5.73548225 24.2130022,5.97766165 23.7662727,6.11605195 C23.3195432,6.25444225 22.72964,6.32363636 21.9965455,6.32363636 Z M38.5254545,11.7208312 C38.5254545,11.190335 38.5426362,10.7924689 38.577,10.5272208 C38.6113638,10.2619727 38.7087265,9.95636537 38.8690909,9.61038961 C39.1898198,9.0106983 40.0832654,8.71085714 41.5494545,8.71085714 C42.6490964,8.71085714 43.4279977,8.90690713 43.8861818,9.29901299 C44.2756383,9.62192369 44.4818181,10.1178148 44.5047273,10.7867013 C44.5276365,11.0173518 44.5390909,11.35179 44.5390909,11.790026 L44.5390909,23.8991169 C44.5390909,24.429613 44.5219093,24.8274792 44.4875455,25.0927273 C44.4531816,25.3579754 44.3443646,25.6635827 44.1610909,26.0095584 C43.8632712,26.6092498 42.9812801,26.9090909 41.5150909,26.9090909 C40.071811,26.9090909 39.1898198,26.5977174 38.8690909,25.974961 C38.7087265,25.6289853 38.6113638,25.3291441 38.577,25.0754286 C38.5426362,24.821713 38.5254545,24.4180807 38.5254545,23.8645195 L38.5254545,11.7208312 Z M43.2676364,6.01225974 C42.8323615,6.15065004 42.2539127,6.21984416 41.5322727,6.21984416 C40.8106328,6.21984416 40.232184,6.15065004 39.7969091,6.01225974 C39.3616342,5.87386944 39.0580918,5.63169004 38.8862727,5.28571429 C38.7144537,4.93973853 38.6113638,4.6341312 38.577,4.36888312 C38.5426362,4.10363504 38.5254545,3.70576889 38.5254545,3.17527273 C38.5254545,2.64477657 38.5426362,2.24691042 38.577,1.98166234 C38.6113638,1.71641426 38.7087265,1.42233928 38.8690909,1.09942857 C39.1898198,0.476672211 40.0832654,0.165298701 41.5494545,0.165298701 C42.9927345,0.165298701 43.8632712,0.476672211 44.1610909,1.09942857 C44.3443646,1.44540433 44.4531816,1.75101166 44.4875455,2.01625974 C44.5219093,2.28150782 44.5390909,2.67937397 44.5390909,3.20987013 C44.5390909,3.74036629 44.5219093,4.13823244 44.4875455,4.40348052 C44.4531816,4.6687286 44.3500918,4.96856976 44.1782727,5.30301299 C44.0064537,5.63745622 43.7029113,5.87386944 43.2676364,6.01225974 Z M53.1987273,11.0980779 C54.2754599,9.46045934 55.5698106,8.64166234 57.0818182,8.64166234 C59.4185571,8.64166234 61.1596306,9.64497698 62.3050909,11.6516364 C62.5570922,11.3056606 62.8606346,10.9423915 63.2157273,10.5618182 C63.57082,10.1812449 64.1378143,9.76608017 64.9167273,9.31631169 C65.6956403,8.86654321 66.4974504,8.64166234 67.3221818,8.64166234 C69.1549183,8.64166234 70.689812,9.350902 71.9269091,10.7694026 C73.1640062,12.1879032 73.7825455,14.5347369 73.7825455,17.809974 L73.7825455,23.8645195 C73.7825455,24.3950156 73.7653638,24.7928818 73.731,25.0581299 C73.6966362,25.3233779 73.5878191,25.6289853 73.4045455,25.974961 C73.1067258,26.5977174 72.2247346,26.9090909 70.7585455,26.9090909 C69.3152655,26.9090909 68.4332743,26.586185 68.1125455,25.9403636 C67.952181,25.5943879 67.8548184,25.2887805 67.8204545,25.0235325 C67.7860907,24.7582844 67.7689091,24.3604182 67.7689091,23.8299221 L67.7689091,17.7753766 C67.7689091,15.7687172 67.0587344,14.7654026 65.6383636,14.7654026 C64.8365414,14.7654026 64.292456,15.0306467 64.0060909,15.5611429 C63.7197258,16.091639 63.5765455,16.8412419 63.5765455,17.809974 L63.5765455,23.8645195 C63.5765455,24.4180807 63.5593638,24.821713 63.525,25.0754286 C63.4906362,25.3291441 63.3818191,25.6289853 63.1985455,25.974961 C62.8778166,26.5977174 61.984371,26.9090909 60.5181818,26.9090909 C59.0749019,26.9090909 58.1929107,26.586185 57.8721818,25.9403636 C57.7118174,25.5943879 57.6144547,25.2887805 57.5800909,25.0235325 C57.5457271,24.7582844 57.5285455,24.3604182 57.5285455,23.8299221 L57.5285455,17.7753766 C57.5285455,15.7687172 56.8183707,14.7654026 55.398,14.7654026 C54.0234477,14.7654026 53.3361818,15.7687172 53.3361818,17.7753766 L53.3361818,23.8991169 C53.3361818,24.429613 53.3190002,24.8274792 53.2846364,25.0927273 C53.2502726,25.3579754 53.1414555,25.6635827 52.9581818,26.0095584 C52.6145437,26.6092498 51.7210981,26.9090909 50.2778182,26.9090909 C48.8345382,26.9090909 47.9525471,26.5977174 47.6318182,25.974961 C47.4714537,25.6289853 47.3740911,25.3291441 47.3397273,25.0754286 C47.3053635,24.821713 47.2881818,24.4180807 47.2881818,23.8645195 L47.2881818,11.6862338 C47.2881818,11.1557376 47.3053635,10.7578715 47.3397273,10.4926234 C47.3740911,10.2273753 47.4829082,9.93330032 47.6661818,9.61038961 C48.0098199,8.98763325 48.8230845,8.67625974 50.106,8.67625974 C51.3889155,8.67625974 52.225089,8.88384208 52.6145455,9.29901299 C53.0040019,9.71418389 53.1987273,10.3138662 53.1987273,11.0980779 Z" id="süim"></path>
                        <path d="M78.7595455,24.0548052 C78.9542737,24.2508581 79.0516364,24.6544905 79.0516364,25.2657143 L79.0516364,25.3349091 C79.0516364,25.6116897 79.0430455,25.8163889 79.0258636,25.949013 C79.0086817,26.081637 78.948546,26.2402069 78.8454545,26.4247273 C78.6736355,26.7591705 78.2412307,26.9263896 77.5482273,26.9263896 C76.8552238,26.9263896 76.3970466,26.8168323 76.1736818,26.5977143 C75.9503171,26.3785963 75.8386364,25.9634316 75.8386364,25.3522078 L75.8386364,25.283013 C75.8386364,25.0177649 75.8472272,24.8159487 75.8644091,24.6775584 C75.881591,24.5391681 75.9359995,24.3834814 76.0276364,24.2104935 C76.1994554,23.8645178 76.6318602,23.6915325 77.3248636,23.6915325 C78.0178671,23.6915325 78.4960896,23.8126222 78.7595455,24.0548052 Z M83.1237273,19.0035844 C83.6620936,18.1847751 84.3092689,17.7753766 85.0652727,17.7753766 C86.2336422,17.7753766 87.104179,18.2770339 87.6769091,19.2803636 C87.8029097,19.1073758 87.9546809,18.9257412 88.1322273,18.7354545 C88.3097736,18.5451679 88.5932708,18.3375855 88.9827273,18.1127013 C89.3721838,17.8878171 89.7730888,17.7753766 90.1854545,17.7753766 C91.1018228,17.7753766 91.8692696,18.1299965 92.4878182,18.8392468 C93.1063667,19.5484971 93.4156364,20.7219139 93.4156364,22.3595325 L93.4156364,25.3868052 C93.4156364,25.6520533 93.4070455,25.8509863 93.3898636,25.9836104 C93.3726817,26.1162344 93.3182732,26.2690381 93.2266364,26.442026 C93.0777265,26.7534042 92.6367309,26.9090909 91.9036364,26.9090909 C91.1819964,26.9090909 90.7410008,26.747638 90.5806364,26.4247273 C90.5004541,26.2517394 90.4517728,26.0989357 90.4345909,25.9663117 C90.417409,25.8336876 90.4088182,25.6347546 90.4088182,25.3695065 L90.4088182,22.3422338 C90.4088182,21.3389041 90.0537308,20.8372468 89.3435455,20.8372468 C88.9426344,20.8372468 88.6705916,20.9698688 88.5274091,21.2351169 C88.3842266,21.500365 88.3126364,21.8751664 88.3126364,22.3595325 L88.3126364,25.3868052 C88.3126364,25.6635858 88.3040455,25.865402 88.2868636,25.9922597 C88.2696817,26.1191175 88.2152732,26.2690381 88.1236364,26.442026 C87.9632719,26.7534042 87.5165491,26.9090909 86.7834545,26.9090909 C86.0618146,26.9090909 85.620819,26.747638 85.4604545,26.4247273 C85.3802723,26.2517394 85.331591,26.0989357 85.3144091,25.9663117 C85.2972272,25.8336876 85.2886364,25.6347546 85.2886364,25.3695065 L85.2886364,22.3422338 C85.2886364,21.3389041 84.933549,20.8372468 84.2233636,20.8372468 C83.5360875,20.8372468 83.1924545,21.3389041 83.1924545,22.3422338 L83.1924545,25.4041039 C83.1924545,25.669352 83.1838637,25.8682851 83.1666818,26.0009091 C83.1494999,26.1335331 83.0950914,26.2863368 83.0034545,26.4593247 C82.8316355,26.7591703 82.3849127,26.9090909 81.6632727,26.9090909 C80.9416328,26.9090909 80.5006372,26.7534042 80.3402727,26.442026 C80.2600905,26.2690381 80.2114092,26.1191175 80.1942273,25.9922597 C80.1770454,25.865402 80.1684545,25.6635858 80.1684545,25.3868052 L80.1684545,19.2976623 C80.1684545,19.0324143 80.1770454,18.8334812 80.1942273,18.7008571 C80.2114092,18.5682331 80.2658177,18.4211956 80.3574545,18.2597403 C80.5292736,17.9483621 80.9359059,17.7926753 81.5773636,17.7926753 C82.2188214,17.7926753 82.6369081,17.8964665 82.8316364,18.1040519 C83.0263646,18.3116374 83.1237273,18.6114786 83.1237273,19.0035844 Z M101.061545,22.3422338 L102.968727,24.2796883 C103.381093,24.6948592 103.587273,25.049479 103.587273,25.3435584 C103.587273,25.6376378 103.381093,25.9893746 102.968727,26.3987792 C102.556362,26.8081839 102.207001,27.0128831 101.920636,27.0128831 C101.634271,27.0128831 101.284911,26.8053008 100.872545,26.3901299 L98.9825455,24.469974 L97.0753636,26.3901299 C96.6629979,26.8053008 96.3165014,27.0128831 96.0358636,27.0128831 C95.7552259,27.0128831 95.4058657,26.8081839 94.9877727,26.3987792 C94.5696797,25.9893746 94.3606364,25.6376378 94.3606364,25.3435584 C94.3606364,25.049479 94.5668161,24.6948592 94.9791818,24.2796883 L96.8863636,22.3422338 L94.9791818,20.4047792 C94.5668161,19.9896083 94.3606364,19.6349885 94.3606364,19.3409091 C94.3606364,19.0468297 94.5696797,18.6922099 94.9877727,18.277039 C95.4058657,17.8618681 95.7552259,17.6542857 96.0358636,17.6542857 C96.3165014,17.6542857 96.6629979,17.8618681 97.0753636,18.277039 L98.9825455,20.2144935 L100.872545,18.277039 C101.284911,17.8618681 101.634271,17.6542857 101.920636,17.6542857 C102.207001,17.6542857 102.556362,17.8618681 102.968727,18.277039 C103.381093,18.6922099 103.587273,19.0468297 103.587273,19.3409091 C103.587273,19.6349885 103.381093,19.9896083 102.968727,20.4047792 L101.061545,22.3422338 Z" id=".mx"></path>
                    </g>
                </g>
            </g>
        </g>
    </g>
</svg>