
<svg width="92px" height="57px" viewBox="0 0 92 57" version="1.1" xmlns="http://www.w3.org/2000/svg" xmlns:xlink="http://www.w3.org/1999/xlink">
    <!-- Generator: Sketch 43.2 (39069) - http://www.bohemiancoding.com/sketch -->
    <desc>Created with Sketch.</desc>
    <defs>
        <linearGradient x1="50%" y1="0%" x2="50%" y2="100%" id="linearGradient-1">
            <stop stop-color="#B4F7FA" offset="0%"></stop>
            <stop stop-color="#7AD6FC" offset="100%"></stop>
        </linearGradient>
    </defs>
    <g id="Page-1" stroke="none" stroke-width="1" fill="none" fill-rule="evenodd" opacity="0.862056903">
        <g id="Mobile-Portrait" transform="translate(0.000000, -63.000000)" fill="url(#linearGradient-1)">
            <path d="M24.010989,67.0714286 C24.010989,64.8228407 25.8391811,63 28.0769272,63 L63.7912047,63 C66.0367603,63 67.8571429,64.8274161 67.8571429,67.0714286 C67.8571429,69.3200165 66.0289507,71.1428571 63.7912047,71.1428571 L28.0769272,71.1428571 C25.8313715,71.1428571 24.010989,69.3154411 24.010989,67.0714286 Z M-4.17582418,83.3571429 C-4.17582418,81.1085549 -2.34468354,79.2857143 -0.0991444548,79.2857143 L75.681562,79.2857143 C77.9330501,79.2857143 79.7582418,81.1131304 79.7582418,83.3571429 C79.7582418,85.6057308 77.9271011,87.4285714 75.681562,87.4285714 L-0.0991444548,87.4285714 C-2.35063249,87.4285714 -4.17582418,85.6011553 -4.17582418,83.3571429 Z M-38,99.6428571 C-38,97.3942692 -36.1759727,95.5714286 -33.922182,95.5714286 L79.4386655,95.5714286 C81.6907822,95.5714286 83.5164835,97.3988447 83.5164835,99.6428571 C83.5164835,101.891445 81.6924562,103.714286 79.4386655,103.714286 L-33.922182,103.714286 C-36.1742987,103.714286 -38,101.88687 -38,99.6428571 Z M7.72527473,115.928571 C7.72527473,113.679984 9.55641536,111.857143 11.8019544,111.857143 L87.5826609,111.857143 C89.834149,111.857143 91.6593407,113.684559 91.6593407,115.928571 C91.6593407,118.177159 89.8282,120 87.5826609,120 L11.8019544,120 C9.55046641,120 7.72527473,118.172584 7.72527473,115.928571 Z M34.6593407,71.1428571 L60.3406593,71.1428571 C60.3406593,71.1428571 57.0827825,71.4817351 57.0827825,75.2522107 C57.0827825,79.0226863 60.3406593,79.2857143 60.3406593,79.2857143 L34.6593407,79.2857143 C34.6593407,79.2857143 38.4236993,79.0801854 38.4236993,75.2142857 C38.4236993,71.348386 34.6593407,71.1428571 34.6593407,71.1428571 Z M3.96703297,87.4285714 L58.3440934,87.4285714 C58.3440934,87.4285714 55.0862165,87.7674493 55.0862165,91.537925 C55.0862165,95.3084006 58.3440934,95.5714286 58.3440934,95.5714286 L3.96703297,95.5714286 C3.96703297,95.5714286 7.73139166,95.3658997 7.73139166,91.5 C7.73139166,87.6341003 3.96703297,87.4285714 3.96703297,87.4285714 Z M22.7582418,103.714286 L77.1353022,103.714286 C77.1353022,103.714286 73.8774253,104.053164 73.8774253,107.823639 C73.8774253,111.594115 77.1353022,111.857143 77.1353022,111.857143 L22.7582418,111.857143 C22.7582418,111.857143 26.5226004,111.651614 26.5226004,107.785714 C26.5226004,103.919815 22.7582418,103.714286 22.7582418,103.714286 Z" id="Combined-Shape-Copy" transform="translate(26.829670, 91.500000) scale(-1, 1) translate(-26.829670, -91.500000) "></path>
        </g>
    </g>
</svg>