
<svg width="68px" height="70px" viewBox="0 0 68 70" version="1.1" xmlns="http://www.w3.org/2000/svg" xmlns:xlink="http://www.w3.org/1999/xlink">
    <!-- Generator: Sketch 43.2 (39069) - http://www.bohemiancoding.com/sketch -->
    <desc>Created with Sketch.</desc>
    <defs>
        <linearGradient x1="50%" y1="0%" x2="50%" y2="100%" id="linearGradient-1">
            <stop stop-color="#B4F7FA" offset="0%"></stop>
            <stop stop-color="#7AD6FC" offset="100%"></stop>
        </linearGradient>
    </defs>
    <g id="Page-1" stroke="none" stroke-width="1" fill="none" fill-rule="evenodd" opacity="0.862056903">
        <g id="Mobile-Portrait" transform="translate(-252.000000, -70.000000)" fill="url(#linearGradient-1)">
            <path d="M351.835749,89.8454106 L320.541063,89.8454106 C320.541063,89.8454106 325.128227,89.5949577 325.128227,84.884058 C325.128227,80.1731582 320.541063,79.9227053 320.541063,79.9227053 L351.835749,79.9227053 C351.835749,79.9227053 347.865772,80.3356544 347.865772,84.9302725 C347.865772,89.5248279 351.835641,89.8454019 351.835749,89.8454106 L370.529833,89.8454106 C373.273446,89.8454106 375.497585,92.0722594 375.497585,94.8067633 C375.497585,97.5468427 373.278193,99.7681159 370.529833,99.7681159 L278.185143,99.7681159 C275.441529,99.7681159 273.217391,97.5412672 273.217391,94.8067633 C273.217391,92.0666839 275.436783,89.8454106 278.185143,89.8454106 L351.835749,89.8454106 Z M307.565217,74.9613527 C307.565217,72.2212732 309.793012,70 312.51988,70 L356.040507,70 C358.776891,70 360.995169,72.2268488 360.995169,74.9613527 C360.995169,77.7014321 358.767375,79.9227053 356.040507,79.9227053 L312.51988,79.9227053 C309.783495,79.9227053 307.565217,77.6958566 307.565217,74.9613527 Z M252,114.652174 C252,111.912095 254.222719,109.690821 256.969139,109.690821 L395.108156,109.690821 C397.852536,109.690821 400.077295,111.91767 400.077295,114.652174 C400.077295,117.392253 397.854575,119.613527 395.108156,119.613527 L256.969139,119.613527 C254.224759,119.613527 252,117.386678 252,114.652174 Z M287.719807,134.497585 C287.719807,131.757505 289.939198,129.536232 292.687558,129.536232 L385.032248,129.536232 C387.775862,129.536232 390,131.763081 390,134.497585 C390,137.237664 387.780608,139.458937 385.032248,139.458937 L292.687558,139.458937 C289.943945,139.458937 287.719807,137.232088 287.719807,134.497585 Z M283.140097,99.7681159 L349.402778,99.7681159 C349.402778,99.7681159 345.432801,100.181065 345.432801,104.775683 C345.432801,109.370301 349.402778,109.690821 349.402778,109.690821 L283.140097,109.690821 C283.140097,109.690821 287.727261,109.440368 287.727261,104.729469 C287.727261,100.018569 283.140097,99.7681159 283.140097,99.7681159 Z M306.038647,119.613527 L372.301329,119.613527 C372.301329,119.613527 368.331352,120.026476 368.331352,124.621094 C368.331352,129.215712 372.301329,129.536232 372.301329,129.536232 L306.038647,129.536232 C306.038647,129.536232 310.625811,129.285779 310.625811,124.574879 C310.625811,119.863979 306.038647,119.613527 306.038647,119.613527 Z" id="Combined-Shape-Copy-2" transform="translate(326.038647, 104.729469) scale(1, -1) translate(-326.038647, -104.729469) "></path>
        </g>
    </g>
</svg>